<svg width="22" height="16" viewBox="0 0 22 16" fill="none" xmlns="http://www.w3.org/2000/svg">
<g id="elements">
<path id="Ellipse 1650" d="M8 13C8 14.1046 7.10457 15 6 15C4.89543 15 4 14.1046 4 13C4 11.8954 4.89543 11 6 11C7.10457 11 8 11.8954 8 13Z" stroke="#667085"/>
<path id="Ellipse 1651" d="M18 13C18 14.1046 17.1046 15 16 15C14.8954 15 14 14.1046 14 13C14 11.8954 14.8954 11 16 11C17.1046 11 18 11.8954 18 13Z" stroke="#667085"/>
<path id="Vector 7213" d="M1 6H17" stroke="#667085" stroke-linecap="round"/>
<path id="Vector" d="M18 12.5C17.7239 12.5 17.5 12.7239 17.5 13C17.5 13.2761 17.7239 13.5 18 13.5V12.5ZM1 0.5C0.723858 0.5 0.5 0.723858 0.5 1C0.5 1.27614 0.723858 1.5 1 1.5V0.5ZM13.3235 1.33906L13.0926 1.78255L13.3235 1.33906ZM20.8342 8.33713L20.3673 8.5162L20.3673 8.5162L20.8342 8.33713ZM20.7071 12.7071L21.0607 13.0607L21.0607 13.0607L20.7071 12.7071ZM16.818 5.65382L16.4669 6.00986L16.4669 6.00986L16.818 5.65382ZM3.35355 1.35355C3.54882 1.15829 3.54882 0.841709 3.35355 0.646447C3.15829 0.451184 2.84171 0.451184 2.64645 0.646447L3.35355 1.35355ZM1.14935 11.9077L1.57467 11.6448L1.57467 11.6448L1.14935 11.9077ZM3.88512 13.4866C4.15388 13.5501 4.42318 13.3836 4.48662 13.1149C4.55007 12.8461 4.38363 12.5768 4.11488 12.5134L3.88512 13.4866ZM8 12.5C7.72386 12.5 7.5 12.7239 7.5 13C7.5 13.2761 7.72386 13.5 8 13.5V12.5ZM14 13.5C14.2761 13.5 14.5 13.2761 14.5 13C14.5 12.7239 14.2761 12.5 14 12.5V13.5ZM18 13.5H19V12.5H18V13.5ZM21.5 11V10.2797H20.5V11H21.5ZM10.3761 0.5H1V1.5H10.3761V0.5ZM10.3761 1.5C11.1504 1.5 11.698 1.50048 12.1341 1.54031C12.5602 1.57922 12.8444 1.65337 13.0926 1.78255L13.5544 0.895575C13.1513 0.685693 12.7272 0.590309 12.2251 0.544455C11.733 0.499521 11.1325 0.5 10.3761 0.5V1.5ZM21.5 10.2797C21.5 9.3141 21.508 8.69771 21.301 8.15805L20.3673 8.5162C20.492 8.8412 20.5 9.23161 20.5 10.2797H21.5ZM19 13.5C19.4573 13.5 19.8505 13.5011 20.1639 13.4589C20.4917 13.4149 20.8058 13.3155 21.0607 13.0607L20.3536 12.3536C20.3155 12.3916 20.2475 12.4387 20.0306 12.4678C19.7994 12.4989 19.4855 12.5 19 12.5V13.5ZM20.5 11C20.5 11.4855 20.4989 11.7994 20.4678 12.0306C20.4387 12.2475 20.3916 12.3155 20.3536 12.3536L21.0607 13.0607C21.3155 12.8058 21.4149 12.4917 21.4589 12.1639C21.5011 11.8505 21.5 11.4573 21.5 11H20.5ZM17.169 5.29779C16.5868 4.72371 16.1693 3.94013 15.6323 3.0807C15.1204 2.26165 14.5051 1.39056 13.5544 0.895575L13.0926 1.78255C13.783 2.14202 14.2777 2.80006 14.7842 3.61065C15.2656 4.38087 15.7748 5.32744 16.4669 6.00986L17.169 5.29779ZM21.301 8.15805C20.8865 7.07748 19.9986 6.62976 19.2025 6.31315C18.7782 6.14444 18.4242 6.02818 18.0535 5.8623C17.7009 5.70452 17.4043 5.52974 17.169 5.29779L16.4669 6.00986C16.8217 6.35968 17.2385 6.59318 17.645 6.77509C18.0335 6.94889 18.4843 7.10371 18.8329 7.24237C19.5826 7.54049 20.1128 7.85265 20.3673 8.5162L21.301 8.15805ZM2.64645 0.646447C2.06447 1.22842 1.53413 2.31832 1.15684 3.32444C0.963358 3.84038 0.801229 4.35853 0.686804 4.81623C0.5749 5.26385 0.5 5.68702 0.5 6H1.5C1.5 5.81298 1.5501 5.48615 1.65695 5.05877C1.76127 4.64147 1.91164 4.15962 2.09316 3.67556C2.46587 2.68168 2.93553 1.77158 3.35355 1.35355L2.64645 0.646447ZM0.5 6V10.7639H1.5V6H0.5ZM0.5 10.7639C0.5 11.0544 0.499383 11.31 0.52132 11.5221C0.544448 11.7458 0.595737 11.963 0.724024 12.1706L1.57467 11.6448C1.55361 11.6108 1.53023 11.5567 1.51602 11.4193C1.50062 11.2703 1.5 11.0749 1.5 10.7639H0.5ZM4.11488 12.5134C3.88943 12.4602 3.61847 12.4152 3.36283 12.3696C3.09779 12.3223 2.83286 12.2718 2.58222 12.2047C2.05301 12.063 1.71952 11.8792 1.57467 11.6448L0.724024 12.1706C1.0859 12.7561 1.76197 13.0203 2.32353 13.1707C2.61827 13.2496 2.91903 13.3062 3.18727 13.354C3.4649 13.4036 3.69481 13.4417 3.88512 13.4866L4.11488 12.5134ZM8 13.5L14 13.5V12.5L8 12.5V13.5Z" fill="#667085"/>
<path id="Vector 7217" d="M8 6V1" stroke="#667085" stroke-linecap="round"/>
</g>
</svg>
