<svg width="57" height="52" viewBox="0 0 57 52" fill="none" xmlns="http://www.w3.org/2000/svg">
<g id="elements">
<path id="Vector 6095" d="M2.99998 26L8.33332 28.6667" stroke="white" stroke-width="3" stroke-linecap="round" stroke-linejoin="round"/>
<path id="Vector 6096" d="M53.6666 27.3333L48.3333 28.6666" stroke="white" stroke-width="3" stroke-linecap="round" stroke-linejoin="round"/>
<path id="Vector" d="M17.6666 40.6667L18.3218 39.0289C19.296 36.5933 19.7831 35.3755 20.7989 34.6877C21.8147 34 23.1263 34 25.7496 34H30.9171C33.5403 34 34.8519 34 35.8677 34.6877C36.8835 35.3755 37.3706 36.5933 38.3449 39.0289L39 40.6667" stroke="white" stroke-width="3" stroke-linecap="round" stroke-linejoin="round"/>
<path id="Vector_2" d="M1.66665 39.3333V47.0185C1.66665 48.0286 2.30866 48.9519 3.32501 49.4036C3.98447 49.6967 4.61434 49.9999 5.37485 49.9999H9.95844C10.719 49.9999 11.3488 49.6967 12.0083 49.4036C13.0246 48.9519 13.6666 48.0286 13.6666 47.0185V41.9999" stroke="white" stroke-width="3" stroke-linecap="round" stroke-linejoin="round"/>
<path id="Vector_3" d="M43 41.9999V47.0185C43 48.0286 43.642 48.9519 44.6583 49.4036C45.3178 49.6967 45.9477 49.9999 46.7082 49.9999H51.2918C52.0523 49.9999 52.6822 49.6967 53.3416 49.4036C54.358 48.9519 55 48.0286 55 47.0185V39.3333" stroke="white" stroke-width="3" stroke-linecap="round" stroke-linejoin="round"/>
<path id="Vector 6097" d="M49.6666 16.6666L52.3333 15.3333" stroke="white" stroke-width="3" stroke-linecap="round" stroke-linejoin="round"/>
<path id="Vector 6098" d="M6.99998 16.6666L4.33332 15.3333" stroke="white" stroke-width="3" stroke-linecap="round" stroke-linejoin="round"/>
<path id="Vector_4" d="M8.33331 18L11.2355 9.29357C12.4088 5.77347 12.9955 4.01342 14.3922 3.00671C15.789 2 17.6442 2 21.3547 2H35.3119C39.0224 2 40.8777 2 42.2744 3.00671C43.6711 4.01342 44.2578 5.77347 45.4312 9.29357L48.3333 18" stroke="white" stroke-width="3" stroke-linejoin="round"/>
<path id="Vector_5" d="M8.33332 18H48.3333C50.8859 20.7027 55 24.4665 55 28.6656V37.9205C55 39.4417 53.9879 40.7222 52.6449 40.8999L44.3333 42H12.3333L4.02174 40.8999C2.67877 40.7222 1.66665 39.4417 1.66665 37.9205V28.6656C1.66665 24.4665 5.78074 20.7027 8.33332 18Z" stroke="white" stroke-width="3" stroke-linejoin="round"/>
</g>
</svg>
