<svg width="18" height="18" viewBox="0 0 18 18" fill="none" xmlns="http://www.w3.org/2000/svg">
<g id="elements">
<path id="Vector" d="M8.16675 9.83334H12.3334M5.66675 9.83334H5.67423M9.83341 13.1667H5.66675M12.3334 13.1667H12.3259" stroke="#667085" stroke-linecap="round" stroke-linejoin="round"/>
<path id="Vector_2" d="M14 0.666672V2.33334M4 0.666672V2.33334" stroke="#667085" stroke-linecap="round" stroke-linejoin="round"/>
<path id="Vector_3" d="M1.08337 9.2027C1.08337 5.57161 1.08337 3.75607 2.12681 2.62803C3.17024 1.5 4.84962 1.5 8.20837 1.5H9.79171C13.1505 1.5 14.8298 1.5 15.8733 2.62803C16.9167 3.75607 16.9167 5.57161 16.9167 9.2027V9.63063C16.9167 13.2617 16.9167 15.0773 15.8733 16.2053C14.8298 17.3333 13.1505 17.3333 9.79171 17.3333H8.20837C4.84962 17.3333 3.17024 17.3333 2.12681 16.2053C1.08337 15.0773 1.08337 13.2617 1.08337 9.63063V9.2027Z" stroke="#667085" stroke-linecap="round" stroke-linejoin="round"/>
<path id="Vector 4049" d="M1.5 5.66667H16.5" stroke="#667085" stroke-linecap="round" stroke-linejoin="round"/>
</g>
</svg>
