<svg width="16" height="18" viewBox="0 0 16 18" fill="none" xmlns="http://www.w3.org/2000/svg">
<g id="elements">
<path id="Vector 3213" d="M5.20248 1.62133L3.7818 2.27802C1.59393 3.28933 0.5 3.79498 0.5 4.625C0.5 5.45503 1.59393 5.96068 3.7818 6.97199L5.20249 7.62868C6.57936 8.26512 7.26781 8.58334 8 8.58334C8.73219 8.58334 9.42063 8.26512 10.7975 7.62868L12.2182 6.97199C14.4061 5.96068 15.5 5.45503 15.5 4.625C15.5 3.79498 14.4061 3.28933 12.2182 2.27802L10.7975 1.62133C9.42063 0.984892 8.73219 0.666672 8 0.666672C7.26781 0.666672 6.57937 0.984892 5.20248 1.62133Z" stroke="#667085" stroke-linecap="round" stroke-linejoin="round"/>
<path id="Vector" d="M15.3233 8.24771C15.4411 8.41334 15.5 8.58597 15.5 8.77581C15.5 9.59402 14.4061 10.0925 12.2182 11.0894L10.7975 11.7367C9.42063 12.3641 8.73219 12.6778 8 12.6778C7.26781 12.6778 6.57936 12.3641 5.20249 11.7367L3.7818 11.0894C1.59394 10.0925 0.5 9.59402 0.5 8.77581C0.5 8.58597 0.558889 8.41334 0.676666 8.24771" stroke="#667085" stroke-linecap="round" stroke-linejoin="round"/>
<path id="Vector_2" d="M14.9806 12.5551C15.3269 12.8309 15.5 13.1058 15.5 13.4314C15.5 14.2496 14.4061 14.748 12.2182 15.7449L10.7975 16.3923C9.42063 17.0197 8.73219 17.3333 8 17.3333C7.26781 17.3333 6.57936 17.0197 5.20249 16.3923L3.7818 15.7449C1.59394 14.748 0.5 14.2496 0.5 13.4314C0.5 13.1058 0.673149 12.8309 1.01945 12.5551" stroke="#667085" stroke-linecap="round" stroke-linejoin="round"/>
</g>
</svg>
