<svg width="18" height="18" viewBox="0 0 18 18" fill="none" xmlns="http://www.w3.org/2000/svg">
<g id="elements">
<path id="Vector" d="M5.66683 10.25H12.3335M5.66683 6.08333H9.00016" stroke="#667085" stroke-linecap="round" stroke-linejoin="round"/>
<path id="Vector_2" d="M4.08243 14.8333C2.999 14.7268 2.18738 14.4013 1.64306 13.857C0.666748 12.8807 0.666748 11.3094 0.666748 8.16666V7.74999C0.666748 4.6073 0.666748 3.03595 1.64306 2.05964C2.61937 1.08333 4.19072 1.08333 7.33342 1.08333H10.6667C13.8094 1.08333 15.3808 1.08333 16.3571 2.05964C17.3334 3.03595 17.3334 4.6073 17.3334 7.74999V8.16666C17.3334 11.3094 17.3334 12.8807 16.3571 13.857C15.3808 14.8333 13.8094 14.8333 10.6667 14.8333C10.1997 14.8437 9.8277 14.8793 9.46224 14.9625C8.4636 15.1924 7.53885 15.7034 6.62497 16.1491C5.32282 16.784 4.67175 17.1015 4.26316 16.8043C3.48149 16.2221 4.24553 14.4182 4.41675 13.5833" stroke="#667085" stroke-linecap="round"/>
</g>
</svg>
