<svg width="30" height="28" viewBox="0 0 30 28" fill="none" xmlns="http://www.w3.org/2000/svg">
<g id="elements">
<path id="Vector" d="M8.3335 8L12.2562 10.3192C14.5431 11.6714 15.4572 11.6714 17.7441 10.3192L21.6668 8" stroke="#0E252F" stroke-width="1.5" stroke-linecap="round" stroke-linejoin="round"/>
<path id="Vector_2" d="M13.0001 24C12.3783 23.9919 11.7558 23.98 11.1319 23.9643C6.93386 23.8588 4.83486 23.806 3.32669 22.2912C1.81852 20.7764 1.77494 18.7316 1.68777 14.6418C1.65974 13.3268 1.65974 12.0196 1.68777 10.7046C1.77493 6.61484 1.81851 4.56997 3.32669 3.05519C4.83486 1.54041 6.93385 1.48764 11.1318 1.38211C13.7192 1.31707 16.281 1.31707 18.8683 1.38212C23.0663 1.48766 25.1653 1.54043 26.6735 3.05521C28.1816 4.56999 28.2252 6.61486 28.3124 10.7046C28.3253 11.31 28.3323 11.5953 28.3333 12" stroke="#0E252F" stroke-width="1.5" stroke-linecap="round" stroke-linejoin="round"/>
<path id="Vector_3" d="M24.3335 20.6667C24.3335 21.7712 23.4381 22.6667 22.3335 22.6667C21.2289 22.6667 20.3335 21.7712 20.3335 20.6667C20.3335 19.5621 21.2289 18.6667 22.3335 18.6667C23.4381 18.6667 24.3335 19.5621 24.3335 20.6667ZM24.3335 20.6667V21.3333C24.3335 22.4379 25.2289 23.3333 26.3335 23.3333C27.4381 23.3333 28.3335 22.4379 28.3335 21.3333V20.6667C28.3335 17.353 25.6472 14.6667 22.3335 14.6667C19.0198 14.6667 16.3335 17.353 16.3335 20.6667C16.3335 23.9804 19.0198 26.6667 22.3335 26.6667" stroke="#0E252F" stroke-width="1.5" stroke-linecap="round" stroke-linejoin="round"/>
</g>
</svg>
