<svg width="22" height="20" viewBox="0 0 22 20" fill="none" xmlns="http://www.w3.org/2000/svg">
<g id="elements">
<path id="Vector 6095" d="M1.49695 10L3.49695 11" stroke="#0E252F" stroke-width="1.5" stroke-linecap="round" stroke-linejoin="round"/>
<path id="Vector 6096" d="M20.4969 10.5L18.4969 11" stroke="#0E252F" stroke-width="1.5" stroke-linecap="round" stroke-linejoin="round"/>
<path id="Vector" d="M6.99695 15.5L7.24262 14.8858C7.60796 13.9725 7.79063 13.5158 8.17155 13.2579C8.55248 13 9.04434 13 10.028 13H11.9658C12.9496 13 13.4414 13 13.8223 13.2579C14.2033 13.5158 14.3859 13.9725 14.7513 14.8858L14.9969 15.5" stroke="#0E252F" stroke-width="1.5" stroke-linecap="round" stroke-linejoin="round"/>
<path id="Vector_2" d="M0.996948 15V17.882C0.996948 18.2607 1.2377 18.607 1.61883 18.7764C1.86613 18.8863 2.10233 19 2.38752 19H4.10637C4.39156 19 4.62777 18.8863 4.87506 18.7764C5.2562 18.607 5.49695 18.2607 5.49695 17.882V16" stroke="#0E252F" stroke-width="1.5" stroke-linecap="round" stroke-linejoin="round"/>
<path id="Vector_3" d="M16.4969 16V17.882C16.4969 18.2607 16.7377 18.607 17.1188 18.7764C17.3661 18.8863 17.6023 19 17.8875 19H19.6064C19.8916 19 20.1278 18.8863 20.3751 18.7764C20.7562 18.607 20.9969 18.2607 20.9969 17.882V15" stroke="#0E252F" stroke-width="1.5" stroke-linecap="round" stroke-linejoin="round"/>
<path id="Vector 6097" d="M18.9969 6.5L19.9969 6" stroke="#0E252F" stroke-width="1.5" stroke-linecap="round" stroke-linejoin="round"/>
<path id="Vector 6098" d="M2.99695 6.5L1.99695 6" stroke="#0E252F" stroke-width="1.5" stroke-linecap="round" stroke-linejoin="round"/>
<path id="Vector_4" d="M3.49695 7L4.58525 3.73509C5.02526 2.41505 5.24527 1.75503 5.76905 1.37752C6.29282 1 6.98854 1 8.37998 1H13.6139C15.0054 1 15.7011 1 16.2249 1.37752C16.7486 1.75503 16.9686 2.41505 17.4086 3.73509L18.4969 7" stroke="#0E252F" stroke-width="1.5" stroke-linejoin="round"/>
<path id="Vector_5" d="M3.49695 7H18.4969C19.4542 8.01352 20.9969 9.42495 20.9969 10.9996V14.4702C20.9969 15.0407 20.6174 15.5208 20.1138 15.5875L16.9969 16H4.99695L1.88011 15.5875C1.37649 15.5208 0.996948 15.0407 0.996948 14.4702V10.9996C0.996948 9.42495 2.53973 8.01352 3.49695 7Z" stroke="#0E252F" stroke-width="1.5" stroke-linejoin="round"/>
</g>
</svg>
