<svg width="22" height="22" viewBox="0 0 22 22" fill="none" xmlns="http://www.w3.org/2000/svg">
<g id="elements">
<path id="Ellipse 1898" d="M10.9969 21C16.5198 21 20.9969 16.5228 20.9969 11C20.9969 5.47715 16.5198 1 10.9969 1C6.51927 1 2.77121 3.94289 1.49695 8H3.99695" stroke="#0E252F" stroke-width="1.5" stroke-linecap="round" stroke-linejoin="round"/>
<path id="Path" d="M10.9969 7V11L12.9969 13" stroke="#0E252F" stroke-width="1.5" stroke-linecap="round" stroke-linejoin="round"/>
<path id="Ellipse 1899" d="M0.996948 11C0.996948 11.3373 1.01215 11.6709 1.04188 12M7.99695 21C7.65535 20.8876 7.32166 20.7564 6.99695 20.6078M2.20634 16C2.01349 15.6284 1.84147 15.2433 1.69192 14.8462M3.82817 18.3065C4.13385 18.6358 4.46001 18.9441 4.8045 19.2292" stroke="#0E252F" stroke-width="1.5" stroke-linecap="round" stroke-linejoin="round"/>
</g>
</svg>
