<svg width="22" height="22" viewBox="0 0 22 22" fill="none" xmlns="http://www.w3.org/2000/svg">
<g id="elements">
<path id="Vector" d="M16.9969 1V3M4.99695 1V3" stroke="#0E252F" stroke-width="1.5" stroke-linecap="round" stroke-linejoin="round"/>
<path id="Vector_2" d="M10.9925 12H11.0014M10.9925 16H11.0014M14.988 12H14.9969M6.99695 12H7.00592M6.99695 16H7.00592" stroke="#0E252F" stroke-width="2" stroke-linecap="round" stroke-linejoin="round"/>
<path id="Vector 4046" d="M2.49695 7H19.4969" stroke="#0E252F" stroke-width="1.5" stroke-linecap="round" stroke-linejoin="round"/>
<path id="Vector_3" d="M1.49695 11.2432C1.49695 6.88594 1.49695 4.70728 2.74907 3.35364C4.00119 2 6.01644 2 10.0469 2H11.9469C15.9775 2 17.9927 2 19.2448 3.35364C20.4969 4.70728 20.4969 6.88594 20.4969 11.2432V11.7568C20.4969 16.1141 20.4969 18.2927 19.2448 19.6464C17.9927 21 15.9775 21 11.9469 21H10.0469C6.01644 21 4.00119 21 2.74907 19.6464C1.49695 18.2927 1.49695 16.1141 1.49695 11.7568V11.2432Z" stroke="#0E252F" stroke-width="1.5" stroke-linecap="round" stroke-linejoin="round"/>
<path id="Vector 4049" d="M1.99695 7H19.9969" stroke="#0E252F" stroke-width="1.5" stroke-linecap="round" stroke-linejoin="round"/>
</g>
</svg>
