<svg width="22" height="22" viewBox="0 0 22 22" fill="none" xmlns="http://www.w3.org/2000/svg">
<g id="elements">
<path id="Vector" d="M2.77457 10.9424C1.82655 9.28931 1.3688 7.93948 1.09279 6.57121C0.684571 4.54758 1.61876 2.57081 3.16633 1.30947C3.8204 0.776383 4.57018 0.958518 4.95695 1.6524L5.83013 3.21891C6.52224 4.46057 6.86829 5.08139 6.79965 5.73959C6.73101 6.39779 6.26432 6.93386 5.33092 8.00601L2.77457 10.9424ZM2.77457 10.9424C4.69345 14.2883 7.70479 17.3013 11.0546 19.2224M11.0546 19.2224C12.7076 20.1704 14.0575 20.6282 15.4257 20.9042C17.4494 21.3124 19.4261 20.3782 20.6875 18.8306C21.2206 18.1766 21.0384 17.4268 20.3446 17.04L18.778 16.1668C17.5364 15.4747 16.9156 15.1287 16.2574 15.1973C15.5992 15.2659 15.0631 15.7326 13.9909 16.666L11.0546 19.2224Z" stroke="#0E252F" stroke-width="1.5" stroke-linejoin="round"/>
<path id="Vector_2" d="M12.9969 5.83185C14.4202 6.43624 15.5607 7.57677 16.1651 9M13.651 1C17.1882 2.02076 19.9761 4.80852 20.9969 8.34563" stroke="#0E252F" stroke-width="1.5" stroke-linecap="round"/>
</g>
</svg>
