<svg width="30" height="30" viewBox="0 0 30 30" fill="none" xmlns="http://www.w3.org/2000/svg">
<g id="elements">
<path id="Vector" d="M9.37371 21.8149C7.90654 22.6573 4.05972 24.3774 6.40269 26.5299C7.54722 27.5813 8.82192 28.3333 10.4245 28.3333H19.5694C21.172 28.3333 22.4467 27.5813 23.5912 26.5299C25.9342 24.3774 22.0874 22.6573 20.6202 21.8149C17.1797 19.8395 12.8142 19.8395 9.37371 21.8149Z" stroke="#0E252F" stroke-width="1.5" stroke-linecap="round" stroke-linejoin="round"/>
<path id="Ellipse 1381" d="M19.6637 12.3333C19.6637 14.9107 17.5743 17 14.997 17C12.4197 17 10.3303 14.9107 10.3303 12.3333C10.3303 9.75599 12.4197 7.66666 14.997 7.66666C17.5743 7.66666 19.6637 9.75599 19.6637 12.3333Z" stroke="#0E252F" stroke-width="1.5"/>
<path id="Vector_2" d="M2.80231 20.3333C2.07031 18.6885 1.66364 16.8679 1.66364 14.9527C1.66364 7.61504 7.63317 1.66666 14.997 1.66666C22.3608 1.66666 28.3303 7.61504 28.3303 14.9527C28.3303 16.8679 27.9236 18.6885 27.1916 20.3333" stroke="#0E252F" stroke-width="1.5" stroke-linecap="round"/>
</g>
</svg>
