<svg width="54" height="58" viewBox="0 0 54 58" fill="none" xmlns="http://www.w3.org/2000/svg">
<g id="elements">
<path id="Vector" d="M42.9969 2.33325V7.66659M10.9969 2.33325V7.66659" stroke="white" stroke-width="3" stroke-linecap="round" stroke-linejoin="round"/>
<path id="Vector_2" d="M26.985 31.6665H27.009M26.985 42.3332H27.009M37.6397 31.6665H37.6637M16.3303 31.6665H16.3542M16.3303 42.3332H16.3542" stroke="white" stroke-width="3" stroke-linecap="round" stroke-linejoin="round"/>
<path id="Vector 4046" d="M4.33032 18.3333H49.6637" stroke="white" stroke-width="3" stroke-linecap="round" stroke-linejoin="round"/>
<path id="Vector_3" d="M1.66364 29.6486C1.66364 18.0292 1.66364 12.2194 5.00262 8.60971C8.3416 5 13.7156 5 24.4636 5H29.5303C40.2783 5 45.6523 5 48.9913 8.60971C52.3303 12.2194 52.3303 18.0292 52.3303 29.6486V31.018C52.3303 42.6375 52.3303 48.4472 48.9913 52.057C45.6523 55.6667 40.2783 55.6667 29.5303 55.6667H24.4636C13.7156 55.6667 8.3416 55.6667 5.00262 52.057C1.66364 48.4472 1.66364 42.6375 1.66364 31.018V29.6486Z" stroke="white" stroke-width="3" stroke-linecap="round" stroke-linejoin="round"/>
<path id="Vector 4049" d="M2.99695 18.3333H50.9969" stroke="white" stroke-width="3" stroke-linecap="round" stroke-linejoin="round"/>
</g>
</svg>
