<svg width="88" height="88" viewBox="0 0 88 88" fill="none" xmlns="http://www.w3.org/2000/svg">
<g id="elements">
<circle id="Ellipse 1244" cx="44" cy="44.0002" r="41.6667" stroke="#6AB4D4" stroke-width="3"/>
<path id="Vector" d="M45.5 23.167C45.5 22.3386 44.8284 21.667 44 21.667C43.1716 21.667 42.5 22.3386 42.5 23.167H45.5ZM51.3107 49.1897C50.7249 48.6039 49.7751 48.6039 49.1893 49.1897C48.6036 49.7755 48.6036 50.7252 49.1893 51.311L51.3107 49.1897ZM55.4393 57.561C56.0251 58.1468 56.9749 58.1468 57.5607 57.561C58.1464 56.9752 58.1464 56.0255 57.5607 55.4397L55.4393 57.561ZM42.5 23.167V37.7503H45.5V23.167H42.5ZM49.1893 51.311L55.4393 57.561L57.5607 55.4397L51.3107 49.1897L49.1893 51.311ZM48.75 44.0003C48.75 46.6237 46.6234 48.7503 44 48.7503V51.7503C48.2802 51.7503 51.75 48.2805 51.75 44.0003H48.75ZM44 48.7503C41.3766 48.7503 39.25 46.6237 39.25 44.0003H36.25C36.25 48.2805 39.7198 51.7503 44 51.7503V48.7503ZM39.25 44.0003C39.25 41.377 41.3766 39.2503 44 39.2503V36.2503C39.7198 36.2503 36.25 39.7201 36.25 44.0003H39.25ZM44 39.2503C46.6234 39.2503 48.75 41.377 48.75 44.0003H51.75C51.75 39.7201 48.2802 36.2503 44 36.2503V39.2503Z" fill="#6AB4D4"/>
</g>
</svg>
