<svg width="78" height="88" viewBox="0 0 78 88" fill="none" xmlns="http://www.w3.org/2000/svg">
<g id="elements">
<path id="Rectangle 2181" d="M3.65608 36.9408C2.03916 32.4658 1.23069 30.2283 1.57543 28.7945C1.9525 27.2263 3.06776 26.0037 4.49332 25.5958C5.79666 25.2229 7.82415 26.124 11.8791 27.9263C15.4658 29.5204 17.2592 30.3175 18.9441 30.2731C20.7993 30.2243 22.584 29.4803 24.0036 28.1639C25.293 26.9684 26.1578 25.0632 27.8875 21.2528L31.6994 12.8554C34.8836 5.84079 36.4757 2.3335 38.9969 2.3335C41.5182 2.3335 43.1103 5.84079 46.2945 12.8554L50.1064 21.2528C51.8361 25.0632 52.7009 26.9684 53.9903 28.1639C55.4099 29.4803 57.1946 30.2243 59.0498 30.2731C60.7347 30.3175 62.5281 29.5204 66.1148 27.9263C70.1697 26.124 72.1972 25.2229 73.5006 25.5958C74.9261 26.0037 76.0414 27.2263 76.4185 28.7945C76.7632 30.2283 75.9547 32.4658 74.3378 36.9408L67.3877 56.1759C64.4146 64.4042 62.928 68.5184 59.8171 70.8426C56.7062 73.1668 52.6861 73.1668 44.646 73.1668H33.3479C25.3078 73.1668 21.2877 73.1668 18.1768 70.8426C15.0658 68.5184 13.5793 64.4042 10.6062 56.1759L3.65608 36.9408Z" stroke="#6AB4D4" stroke-width="3"/>
<path id="Vector" d="M38.9969 52.3335H39.0344" stroke="#6AB4D4" stroke-width="3" stroke-linecap="round" stroke-linejoin="round"/>
<path id="Vector 4464" d="M18.1636 85.667H59.8303" stroke="#6AB4D4" stroke-width="3" stroke-linecap="round"/>
</g>
</svg>
