<svg width="70" height="88" viewBox="0 0 70 88" fill="none" xmlns="http://www.w3.org/2000/svg">
<g id="elements">
<path id="Ellipse 1592" d="M14.1667 69C6.54614 70.7153 1.66666 73.3511 1.66666 76.3069C1.66666 81.4762 16.5905 85.6667 35 85.6667C53.4095 85.6667 68.3333 81.4762 68.3333 76.3069C68.3333 73.3511 63.4539 70.7153 55.8333 69" stroke="#6AB4D4" stroke-width="3" stroke-linecap="round"/>
<path id="Ellipse 1590" d="M45.4166 31.5002C45.4166 37.2531 40.7529 41.9168 35 41.9168C29.247 41.9168 24.5833 37.2531 24.5833 31.5002C24.5833 25.7472 29.247 21.0835 35 21.0835C40.7529 21.0835 45.4166 25.7472 45.4166 31.5002Z" stroke="#6AB4D4" stroke-width="3"/>
<path id="Vector" d="M40.2392 66.89C38.8338 68.2435 36.9555 69.0002 35.0006 69.0002C33.0458 69.0002 31.1674 68.2435 29.7621 66.89C16.8929 54.4201 -0.353395 40.4899 8.0571 20.2657C12.6046 9.33068 23.5206 2.3335 35.0006 2.3335C46.4806 2.3335 57.3966 9.33068 61.9441 20.2657C70.344 40.4644 53.1401 54.4631 40.2392 66.89Z" stroke="#6AB4D4" stroke-width="3"/>
</g>
</svg>
