<svg width="88" height="88" viewBox="0 0 88 88" fill="none" xmlns="http://www.w3.org/2000/svg">
<g id="elements">
<path id="Ellipse 1770" d="M6.82273 25.25C3.94966 30.8995 2.33029 37.2918 2.33029 44.0617C2.33029 67.0395 20.9851 85.6667 43.997 85.6667C67.0088 85.6667 85.6636 67.0395 85.6636 44.0617C85.6636 37.2918 84.0443 30.8995 81.1712 25.25" stroke="#6AB4D4" stroke-width="3" stroke-linecap="round" stroke-linejoin="round"/>
<path id="Ellipse 1772" d="M27.3303 56.5C31.1308 61.5602 37.1817 64.8333 43.997 64.8333C50.8122 64.8333 56.8631 61.5602 60.6636 56.5" stroke="#6AB4D4" stroke-width="3" stroke-linecap="round" stroke-linejoin="round"/>
<ellipse id="Ellipse 1776" cx="43.997" cy="10.6668" rx="41.6667" ry="8.33333" stroke="#6AB4D4" stroke-width="3" stroke-linecap="round" stroke-linejoin="round"/>
<path id="Vector" d="M23.1636 37.7496C23.1636 34.2979 25.9618 31.4996 29.4136 31.4996C32.8654 31.4996 35.6636 34.2979 35.6636 37.7496M52.3303 37.7495C52.3303 34.2977 55.1285 31.4995 58.5803 31.4995C62.0321 31.4995 64.8303 34.2977 64.8303 37.7495" stroke="#6AB4D4" stroke-width="3" stroke-linecap="round" stroke-linejoin="round"/>
</g>
</svg>
