<svg width="73" height="72" viewBox="0 0 73 72" fill="none" xmlns="http://www.w3.org/2000/svg">
<g id="Group 386">
<g id="Group 385">
<circle id="Ellipse 129" cx="36.5" cy="36" r="34" stroke="#0E252F" stroke-opacity="0.2" stroke-width="2"/>
<path id="Ellipse 128" d="M36.5 2C44.8437 2 52.8962 5.06812 59.1245 10.6203C65.3528 16.1725 69.3221 23.8211 70.2767 32.1101C71.2313 40.399 69.1046 48.7497 64.3014 55.5723C59.4983 62.3949 52.354 67.2132 44.2287 69.1098C36.1033 71.0065 27.5642 69.8492 20.2369 65.8581C12.9095 61.8671 7.30555 55.321 4.49173 47.466C1.6779 39.611 1.85069 30.9956 4.97722 23.2597C8.10374 15.5239 13.9657 9.20775 21.4472 5.51372" stroke="#6AB4D4" stroke-width="4" stroke-linecap="round"/>
</g>
<path id="Arrow 5" d="M27.6904 44.284C27.3209 44.6944 27.354 45.3267 27.7645 45.6963C28.1749 46.0658 28.8072 46.0327 29.1767 45.6223L27.6904 44.284ZM45.2763 27.3042C45.2474 26.7527 44.7768 26.329 44.2253 26.3579L35.2376 26.8289C34.6861 26.8578 34.2624 27.3284 34.2913 27.8799C34.3202 28.4314 34.7908 28.8551 35.3423 28.8262L43.3313 28.4075L43.75 36.3965C43.7789 36.9481 44.2495 37.3717 44.801 37.3428C45.3525 37.3139 45.7762 36.8434 45.7473 36.2919L45.2763 27.3042ZM29.1767 45.6223L45.0208 28.0257L43.5345 26.6874L27.6904 44.284L29.1767 45.6223Z" fill="#6AB4D4"/>
</g>
</svg>
