<svg width="40" height="40" viewBox="0 0 40 40" fill="none" xmlns="http://www.w3.org/2000/svg">
<g id="Facebook">
<path id="Vector" d="M20.0381 40H19.9501C8.94974 40 0 31.0476 0 20.044V19.956C0 8.9524 8.94974 0 19.9501 0H20.0381C31.0385 0 39.9882 8.9524 39.9882 19.956V20.044C39.9882 31.0476 31.0385 40 20.0381 40ZM19.9501 1.35396C9.69555 1.35396 1.35356 9.69843 1.35356 19.956V20.044C1.35356 30.3016 9.69555 38.646 19.9501 38.646H20.0381C30.2927 38.646 38.6347 30.3016 38.6347 20.044V19.956C38.6347 9.69843 30.2927 1.35396 20.0381 1.35396H19.9501Z" fill="#6AB4D4"/>
<path id="Vector_2" d="M22.6844 15.5149V19.7244H27.8902L27.0659 25.3948H22.6844V38.4591C21.8059 38.581 20.9072 38.6446 19.9949 38.6446C18.9418 38.6446 17.9077 38.5607 16.9006 38.3982V25.3948H12.0995V19.7244H16.9006V14.5739C16.9006 11.3786 19.49 8.78711 22.6857 8.78711V8.78982C22.6952 8.78982 22.7033 8.78711 22.7128 8.78711H27.8915V13.6911H24.5076C23.5019 13.6911 22.6857 14.5076 22.6857 15.5136L22.6844 15.5149Z" fill="#6AB4D4"/>
</g>
</svg>
