<svg width="24" height="24" viewBox="0 0 24 24" fill="none" xmlns="http://www.w3.org/2000/svg">
<g id="Group">
<path id="Vector" d="M17.9604 0.539062H6.00574C2.70305 0.539062 0.0162354 3.22667 0.0162354 6.53033V17.4703C0.0162354 20.774 2.70305 23.4616 6.00574 23.4616H17.9604C21.2631 23.4616 23.9499 20.774 23.9499 17.4703V6.53033C23.9499 3.22667 21.2631 0.539062 17.9604 0.539062ZM2.12915 6.53033C2.12915 4.39243 3.86847 2.65257 6.00574 2.65257H17.9604C20.0977 2.65257 21.837 4.39243 21.837 6.53033V17.4703C21.837 19.6082 20.0977 21.3481 17.9604 21.3481H6.00574C3.86847 21.3481 2.12915 19.6082 2.12915 17.4703V6.53033Z" fill="white"/>
<path id="Vector_2" d="M11.9831 17.573C15.0543 17.573 17.5543 15.0736 17.5543 12.0001C17.5543 8.92664 15.0556 6.42725 11.9831 6.42725C8.91048 6.42725 6.4118 8.92664 6.4118 12.0001C6.4118 15.0736 8.91048 17.573 11.9831 17.573ZM11.9831 8.54211C13.8902 8.54211 15.4414 10.0938 15.4414 12.0015C15.4414 13.9092 13.8902 15.4609 11.9831 15.4609C10.0759 15.4609 8.52471 13.9092 8.52471 12.0015C8.52471 10.0938 10.0759 8.54211 11.9831 8.54211Z" fill="white"/>
<path id="Vector_3" d="M18.0701 7.32729C18.8971 7.32729 19.5712 6.65439 19.5712 5.82577C19.5712 4.99715 18.8984 4.32422 18.0701 4.32422C17.2417 4.32422 16.569 4.99715 16.569 5.82577C16.569 6.65439 17.2417 7.32729 18.0701 7.32729Z" fill="white"/>
</g>
</svg>
