<svg width="26" height="26" viewBox="0 0 26 26" fill="none" xmlns="http://www.w3.org/2000/svg">
<g id="Group">
<path id="Vector" d="M16.7368 18.6524C11.7923 18.6524 7.76948 14.627 7.76813 9.68102C7.76948 8.42725 8.79007 7.40771 10.0408 7.40771C10.1693 7.40771 10.2966 7.41855 10.4184 7.44021C10.6864 7.48489 10.9409 7.57561 11.175 7.71236C11.2089 7.73267 11.2319 7.76518 11.2373 7.80309L11.7598 11.0973C11.7665 11.1365 11.7544 11.1744 11.7286 11.2029C11.4403 11.5224 11.0722 11.7526 10.662 11.8677L10.4644 11.9232L10.5389 12.1141C11.2129 13.8309 12.5855 15.2025 14.3031 15.8794L14.494 15.9553L14.5495 15.7576C14.6645 15.3474 14.8946 14.9791 15.2141 14.6907C15.2371 14.669 15.2682 14.6582 15.2993 14.6582C15.3061 14.6582 15.3129 14.6582 15.321 14.6595L18.6142 15.1822C18.6535 15.1889 18.686 15.2106 18.7063 15.2444C18.8416 15.4787 18.9323 15.7346 18.9783 16.0026C19 16.1218 19.0095 16.2477 19.0095 16.379C19.0095 17.6315 17.9902 18.651 16.7368 18.6524Z" fill="white"/>
<path id="Vector_2" d="M25.5052 11.9151C25.2385 8.90117 23.8579 6.10526 21.6178 4.04318C19.3641 1.96891 16.4404 0.826172 13.3827 0.826172C6.67174 0.826172 1.21149 6.28803 1.21149 13.001C1.21149 15.254 1.83276 17.4487 3.009 19.3605L0.385803 25.169L8.78465 24.274C10.2451 24.8725 11.7909 25.1758 13.3813 25.1758C13.7996 25.1758 14.2287 25.1541 14.6591 25.1094C15.0381 25.0688 15.4212 25.0092 15.7975 24.9334C21.4174 23.7974 25.5201 18.8081 25.5526 13.0659V13.001C25.5526 12.6354 25.5363 12.2698 25.5038 11.9164L25.5052 11.9151ZM9.10816 21.7245L4.46139 22.2201L5.84879 19.1452L5.5713 18.7729C5.551 18.7458 5.5307 18.7187 5.50769 18.6876C4.30302 17.0236 3.66683 15.0576 3.66683 13.0023C3.66683 7.64335 8.0253 3.28359 13.3827 3.28359C18.4017 3.28359 22.6559 7.20061 23.0661 12.2008C23.0877 12.4689 23.0999 12.7383 23.0999 13.0037C23.0999 13.0795 23.0986 13.154 23.0972 13.2338C22.9943 17.7168 19.8635 21.5241 15.4834 22.4936C15.1491 22.5681 14.8066 22.6249 14.4655 22.6615C14.1109 22.7021 13.7468 22.7224 13.3854 22.7224C12.0982 22.7224 10.8475 22.4733 9.66582 21.9804C9.53453 21.9276 9.40593 21.8708 9.28546 21.8125L9.10951 21.7272L9.10816 21.7245Z" fill="white"/>
</g>
</svg>
